<svg id="icon_male" xmlns="http://www.w3.org/2000/svg" viewBox="0 0 22.979 48">
  <defs>
    <style>
      .cls-1 {
        fill: #43a8f6;
      }
    </style>
  </defs>
  <g id="Group_15272" data-name="Group 15272">
    <g id="Group_15267" data-name="Group 15267">
      <path id="Path_57131" data-name="Path 57131" class="cls-1" d="M18.6,113.238a2.421,2.421,0,0,0-2.308-1.508c-.491,0-.536.013-.828.013H6.685a2.286,2.286,0,0,0-2.307,1.5L.133,126.147a2.113,2.113,0,0,0,1.221,2.712,2.08,2.08,0,0,0,2.685-1.233l1.129-3.039s.081-.306.081,1.031v17.918a2.809,2.809,0,1,0,5.617,0V131.832a.089.089,0,0,1,.1-.1h1.055a.1.1,0,0,1,.1.1v11.706a2.809,2.809,0,1,0,5.617,0V125.619c0-1.359.118-.931.118-.931l1.091,2.939a2.08,2.08,0,0,0,2.685,1.233,2.113,2.113,0,0,0,1.221-2.712Z" transform="translate(0.001 -98.374)"/>
      <ellipse id="Ellipse_2078" data-name="Ellipse 2078" class="cls-1" cx="6.03" cy="5.968" rx="6.03" ry="5.968" transform="translate(5.515)"/>
    </g>
  </g>
</svg>
