<svg id="icon_female" xmlns="http://www.w3.org/2000/svg" viewBox="0 0 23.885 48">
  <defs>
    <style>
      .cls-1 {
        fill: #ff5bc3;
      }
    </style>
  </defs>
  <ellipse id="Ellipse_2079" data-name="Ellipse 2079" class="cls-1" cx="6.006" cy="6.006" rx="6.006" ry="6.006" transform="translate(5.869)"/>
  <path id="Path_57132" data-name="Path 57132" class="cls-1" d="M228.965,126.486,223.841,114c-.293-.63-.553-1.474-1.757-1.474h-9.1a2.352,2.352,0,0,0-2.171,1.488l-5.323,12.39a2.1,2.1,0,0,0,.945,2.807,2.071,2.071,0,0,0,2.782-.96l.4-.821s.124-.222.078.023c-.29,1.526-1.09,6.115-1.09,6.115a1.393,1.393,0,0,0,1.418,1.737h2.318c.166,0,.136.125.136.125v9.225a2.159,2.159,0,1,0,4.3,0v-9.262a.083.083,0,0,1,.092-.088c.125,0,.441,0,.583,0,.081,0,.071.1.071.1v9.252a2.159,2.159,0,1,0,4.3,0v-9.2s-.014-.15.164-.15h2.494a1.427,1.427,0,0,0,1.453-1.743s-.8-4.923-1.016-6.264c-.061-.384.577.981.577.981a1.752,1.752,0,0,0,2.47,1A2.1,2.1,0,0,0,228.965,126.486Z" transform="translate(-205.279 -99.012)"/>
</svg>
