<svg id="GE01" xmlns="http://www.w3.org/2000/svg" viewBox="0 0 100 100">
  <defs>
    <style>
      .cls-1 {
        fill: #d9d9d9;
      }

      .cls-2 {
        fill: #3e4347;
      }

      .cls-3 {
        fill: #fff;
      }
    </style>
  </defs>
  <ellipse id="Ellipse_83" data-name="Ellipse 83" class="cls-1" cx="50" cy="50" rx="50" ry="50"/>
  <path id="Path_2544" data-name="Path 2544" class="cls-1" d="M174.739,87.368A50,50,0,0,1,85.82,118.76a50,50,0,0,0,70.312-70.312A49.947,49.947,0,0,1,174.739,87.368Z" transform="translate(-74.74 -37.368)"/>
  <g id="Group_1893" data-name="Group 1893" transform="translate(15.723 28.095)">
    <path id="Path_2545" data-name="Path 2545" class="cls-2" d="M201.718,285.136a2.469,2.469,0,0,1-2.81,2.876,153.565,153.565,0,0,0-40.061,0,2.451,2.451,0,0,1-2.752-2.876c2-9.843,10.656-18,22.782-18C191.03,267.136,199.655,275.293,201.718,285.136Z" transform="translate(-144.626 -234.136)"/>
    <path id="Path_2546" data-name="Path 2546" class="cls-2" d="M122.892,198.147a14.157,14.157,0,0,1-13.923-11.633,2.736,2.736,0,0,1,5.383-.981,8.633,8.633,0,0,0,16.737,1.112,2.736,2.736,0,0,1,5.207,1.683A14.081,14.081,0,0,1,122.892,198.147Z" transform="translate(-108.283 -169.465)"/>
    <path id="Path_2547" data-name="Path 2547" class="cls-2" d="M126.964,132.742l-19.123-5.277a2.344,2.344,0,0,1,1.244-4.519l18.161,5.013,5.514-3.275a2.344,2.344,0,0,1,2.39,4.033l-6.371,3.784A2.359,2.359,0,0,1,126.964,132.742Z" transform="translate(-106.121 -122.858)"/>
    <path id="Path_2548" data-name="Path 2548" class="cls-2" d="M296.343,198.15a14.076,14.076,0,0,1-13.4-9.821,2.735,2.735,0,0,1,5.207-1.676,8.632,8.632,0,0,0,16.733-1.112,2.735,2.735,0,0,1,5.383.977A14.147,14.147,0,0,1,296.343,198.15Z" transform="translate(-242.397 -169.468)"/>
    <path id="Path_2549" data-name="Path 2549" class="cls-2" d="M281.43,132.485l-6.374-3.784a2.344,2.344,0,0,1,2.389-4.032l5.518,3.275,18.16-5.013a2.344,2.344,0,0,1,1.244,4.519l-19.123,5.277A2.33,2.33,0,0,1,281.43,132.485Z" transform="translate(-235.535 -122.846)"/>
  </g>
  <path id="Path_2550" data-name="Path 2550" class="cls-3" d="M195.5,271.408a67.848,67.848,0,0,0,27.649.015,24.548,24.548,0,0,0-27.649-.015Z" transform="translate(-159.336 -206.053)"/>
</svg>
