<svg id="GE05" xmlns="http://www.w3.org/2000/svg" viewBox="0 0 100 100">
  <defs>
    <style>
      .cls-1 {
        fill: #d9d9d9;
      }

      .cls-2 {
        fill: #3e4347;
      }

      .cls-3 {
        fill: #a4a4a4;
      }

      .cls-4 {
        fill: #7a7a7a;
      }

      .cls-5 {
        opacity: 0.2;
      }

      .cls-6 {
        fill: #fff;
      }
    </style>
  </defs>
  <circle id="Ellipse_85" data-name="Ellipse 85" class="cls-1" cx="50" cy="50" r="50"/>
  <path id="Path_2561" data-name="Path 2561" class="cls-1" d="M145.642,95.642A50,50,0,0,1,56.72,127.033,50,50,0,0,0,127.033,56.72,49.946,49.946,0,0,1,145.642,95.642Z" transform="translate(-45.642 -45.642)"/>
  <path id="Path_2562" data-name="Path 2562" class="cls-2" d="M170.252,308.4c4.394,1.2-2.647,24.565-25.853,24.737-23.206-.172-30.247-23.534-25.853-24.737,3.512-1.731,12.934,7.862,25.853,7.862C157.5,316.262,166.739,306.671,170.252,308.4Z" transform="translate(-94.399 -248)"/>
  <path id="Path_2563" data-name="Path 2563" class="cls-3" d="M105.662,158.549a.867.867,0,0,1-1.1.209c-2.813-1.478-14.125-7.813-15.209-13.709a6.856,6.856,0,0,1,12.312-5.25,6.771,6.771,0,0,1,5.375-4.978,6.843,6.843,0,0,1,7.978,5.5C116.1,146.215,107.765,156.152,105.662,158.549Z" transform="translate(-71.806 -108.396)"/>
  <path id="Path_2564" data-name="Path 2564" class="cls-4" d="M106.838,168.095c-.478.584-.9,1.063-1.188,1.4a.867.867,0,0,1-1.1.209c-2.813-1.478-14.125-7.813-15.209-13.709a6.818,6.818,0,0,1,4.4-7.687,6.845,6.845,0,0,0-1.959,6.166C92.838,160.282,103.816,166.51,106.838,168.095Z" transform="translate(-71.794 -119.338)"/>
  <g id="Group_1897" data-name="Group 1897" class="cls-5" transform="translate(35.715 28.611)">
    <ellipse id="Ellipse_86" data-name="Ellipse 86" class="cls-6" cx="2.709" cy="1.825" rx="2.709" ry="1.825" transform="translate(1.98 6.377) rotate(-111.433)"/>
  </g>
  <path id="Path_2565" data-name="Path 2565" class="cls-3" d="M293.818,158.549a.867.867,0,0,0,1.1.209c2.813-1.478,14.125-7.813,15.21-13.709a6.856,6.856,0,0,0-12.312-5.25,6.772,6.772,0,0,0-5.375-4.978,6.843,6.843,0,0,0-7.978,5.5C283.38,146.215,291.712,156.152,293.818,158.549Z" transform="translate(-228.827 -108.396)"/>
  <path id="Path_2566" data-name="Path 2566" class="cls-4" d="M326.672,168.095c.478.584.9,1.063,1.187,1.4a.867.867,0,0,0,1.1.209c2.812-1.478,14.125-7.813,15.209-13.709a6.818,6.818,0,0,0-4.4-7.687,6.844,6.844,0,0,1,1.959,6.166C340.672,160.282,329.691,166.51,326.672,168.095Z" transform="translate(-262.869 -119.338)"/>
  <g id="Group_1898" data-name="Group 1898" class="cls-5" transform="translate(57.747 28.615)">
    <ellipse id="Ellipse_87" data-name="Ellipse 87" class="cls-6" cx="1.825" cy="2.709" rx="1.825" ry="2.709" transform="translate(3.397 6.377) rotate(-158.567)"/>
  </g>
  <path id="Path_2567" data-name="Path 2567" class="cls-3" d="M207.976,398.611a29.625,29.625,0,0,0,11.662-2.372,12.256,12.256,0,0,0-3.869-5.566,5.411,5.411,0,0,0-5.131-.816,11.3,11.3,0,0,1-3.409.516,11.947,11.947,0,0,1-2.716-.319,5.524,5.524,0,0,0-5.272,1.475,12.223,12.223,0,0,0-2.922,4.716A29.6,29.6,0,0,0,207.976,398.611Z" transform="translate(-157.976 -313.47)"/>
</svg>
